<mxfile host="app.diagrams.net" modified="2021-10-29T09:24:09.943Z" agent="5.0 (Windows NT 10.0; Win64; x64) AppleWebKit/537.36 (KHTML, like Gecko) Chrome/95.0.4638.54 Safari/537.36" etag="8iZHI2WsLaXIg-du3e8X" version="15.6.0" type="github">
  <diagram id="MbfpNnXbYf99D70c8MvE" name="Page-1">
    <mxGraphModel dx="1146" dy="1717" grid="1" gridSize="10" guides="1" tooltips="1" connect="1" arrows="1" fold="1" page="1" pageScale="1" pageWidth="827" pageHeight="1169" math="0" shadow="0">
      <root>
        <mxCell id="0" />
        <mxCell id="1" parent="0" />
        <mxCell id="sINUKG4I85I86AjKpmML-128" value="" style="rounded=0;whiteSpace=wrap;html=1;strokeColor=#FF3B7C;fillColor=none;strokeWidth=3;fontColor=#0D3DFF;" parent="1" vertex="1">
          <mxGeometry x="380" y="640" width="700" height="990" as="geometry" />
        </mxCell>
        <mxCell id="sINUKG4I85I86AjKpmML-68" value="" style="rounded=0;whiteSpace=wrap;html=1;strokeColor=#0D3DFF;fillColor=none;strokeWidth=3;fontColor=#0D3DFF;" parent="1" vertex="1">
          <mxGeometry x="180" y="-470" width="560" height="840" as="geometry" />
        </mxCell>
        <mxCell id="sINUKG4I85I86AjKpmML-4" value="&amp;nbsp;Gibek&amp;nbsp;" style="edgeStyle=orthogonalEdgeStyle;rounded=0;orthogonalLoop=1;jettySize=auto;html=1;entryX=0.5;entryY=0;entryDx=0;entryDy=0;fillColor=#f8cecc;strokeColor=#b85450;exitX=0;exitY=0.5;exitDx=0;exitDy=0;" parent="1" source="sINUKG4I85I86AjKpmML-47" target="sINUKG4I85I86AjKpmML-11" edge="1">
          <mxGeometry relative="1" as="geometry">
            <mxPoint x="260" y="-120" as="targetPoint" />
          </mxGeometry>
        </mxCell>
        <mxCell id="sINUKG4I85I86AjKpmML-5" style="edgeStyle=orthogonalEdgeStyle;rounded=0;orthogonalLoop=1;jettySize=auto;html=1;entryX=0.5;entryY=0;entryDx=0;entryDy=0;fillColor=#d5e8d4;strokeColor=#82b366;exitX=1;exitY=0.5;exitDx=0;exitDy=0;" parent="1" source="sINUKG4I85I86AjKpmML-47" target="sINUKG4I85I86AjKpmML-54" edge="1">
          <mxGeometry relative="1" as="geometry">
            <mxPoint x="480" y="110" as="sourcePoint" />
            <mxPoint x="660" y="-120" as="targetPoint" />
          </mxGeometry>
        </mxCell>
        <mxCell id="sINUKG4I85I86AjKpmML-53" value="&amp;nbsp;Gryfin&amp;nbsp;" style="edgeLabel;html=1;align=center;verticalAlign=middle;resizable=0;points=[];" parent="sINUKG4I85I86AjKpmML-5" vertex="1" connectable="0">
          <mxGeometry x="-0.5333" y="-2" relative="1" as="geometry">
            <mxPoint as="offset" />
          </mxGeometry>
        </mxCell>
        <mxCell id="sINUKG4I85I86AjKpmML-6" style="edgeStyle=orthogonalEdgeStyle;rounded=0;orthogonalLoop=1;jettySize=auto;html=1;entryX=0.5;entryY=0;entryDx=0;entryDy=0;" parent="1" source="sINUKG4I85I86AjKpmML-7" target="sINUKG4I85I86AjKpmML-47" edge="1">
          <mxGeometry relative="1" as="geometry" />
        </mxCell>
        <mxCell id="sINUKG4I85I86AjKpmML-7" value="Gryfin + Gibek Argument" style="rounded=0;whiteSpace=wrap;html=1;" parent="1" vertex="1">
          <mxGeometry x="400" y="-310" width="120" height="60" as="geometry" />
        </mxCell>
        <mxCell id="sINUKG4I85I86AjKpmML-10" style="edgeStyle=orthogonalEdgeStyle;rounded=0;orthogonalLoop=1;jettySize=auto;html=1;entryX=0;entryY=0.5;entryDx=0;entryDy=0;fillColor=#f8cecc;strokeColor=#b85450;" parent="1" source="sINUKG4I85I86AjKpmML-11" target="sINUKG4I85I86AjKpmML-48" edge="1">
          <mxGeometry relative="1" as="geometry">
            <mxPoint x="580" y="469.99999999999955" as="targetPoint" />
            <Array as="points">
              <mxPoint x="260" y="320" />
            </Array>
          </mxGeometry>
        </mxCell>
        <mxCell id="sINUKG4I85I86AjKpmML-11" value="Ama + Gibek &lt;br&gt;Cantina" style="rounded=0;whiteSpace=wrap;html=1;fillColor=#f8cecc;strokeColor=#b85450;" parent="1" vertex="1">
          <mxGeometry x="200" y="-30" width="120" height="60" as="geometry" />
        </mxCell>
        <mxCell id="sINUKG4I85I86AjKpmML-18" style="edgeStyle=orthogonalEdgeStyle;rounded=0;orthogonalLoop=1;jettySize=auto;html=1;entryX=0.5;entryY=0;entryDx=0;entryDy=0;exitX=0.5;exitY=1;exitDx=0;exitDy=0;" parent="1" source="sINUKG4I85I86AjKpmML-95" target="sINUKG4I85I86AjKpmML-130" edge="1">
          <mxGeometry relative="1" as="geometry">
            <mxPoint x="460" y="-360" as="sourcePoint" />
          </mxGeometry>
        </mxCell>
        <mxCell id="bSBkXTAfgt5YTIxZcjOg-1" value="Both" style="edgeStyle=orthogonalEdgeStyle;rounded=0;orthogonalLoop=1;jettySize=auto;html=1;entryX=0.5;entryY=0;entryDx=0;entryDy=0;" edge="1" parent="1" source="sINUKG4I85I86AjKpmML-47" target="sINUKG4I85I86AjKpmML-59">
          <mxGeometry relative="1" as="geometry" />
        </mxCell>
        <mxCell id="sINUKG4I85I86AjKpmML-47" value="Gibek or Gryfin?" style="rhombus;whiteSpace=wrap;html=1;" parent="1" vertex="1">
          <mxGeometry x="420" y="-200" width="80" height="80" as="geometry" />
        </mxCell>
        <mxCell id="sINUKG4I85I86AjKpmML-77" value="&amp;nbsp;Yes&amp;nbsp;" style="edgeStyle=orthogonalEdgeStyle;rounded=0;orthogonalLoop=1;jettySize=auto;html=1;fontSize=12;fontColor=#000000;exitX=0.5;exitY=1;exitDx=0;exitDy=0;entryX=0.5;entryY=0;entryDx=0;entryDy=0;" parent="1" source="sINUKG4I85I86AjKpmML-91" target="sINUKG4I85I86AjKpmML-135" edge="1">
          <mxGeometry relative="1" as="geometry">
            <mxPoint x="460" y="520" as="sourcePoint" />
            <mxPoint x="460" y="550" as="targetPoint" />
          </mxGeometry>
        </mxCell>
        <mxCell id="sINUKG4I85I86AjKpmML-134" style="edgeStyle=orthogonalEdgeStyle;rounded=0;orthogonalLoop=1;jettySize=auto;html=1;entryX=0.5;entryY=0;entryDx=0;entryDy=0;fontSize=12;fontColor=#FF3B7C;" parent="1" source="sINUKG4I85I86AjKpmML-48" target="sINUKG4I85I86AjKpmML-91" edge="1">
          <mxGeometry relative="1" as="geometry" />
        </mxCell>
        <mxCell id="sINUKG4I85I86AjKpmML-48" value="Player Goes Back Home" style="rounded=1;whiteSpace=wrap;html=1;" parent="1" vertex="1">
          <mxGeometry x="400" y="290" width="120" height="60" as="geometry" />
        </mxCell>
        <mxCell id="sINUKG4I85I86AjKpmML-50" value="Using 4th wall to escape from Ama unlocks Ama&#39;s plotline later and land points with Gibek" style="rounded=0;whiteSpace=wrap;html=1;fillColor=#dae8fc;strokeColor=#6c8ebf;" parent="1" vertex="1">
          <mxGeometry x="40" y="60" width="120" height="90" as="geometry" />
        </mxCell>
        <mxCell id="sINUKG4I85I86AjKpmML-58" style="edgeStyle=orthogonalEdgeStyle;rounded=0;orthogonalLoop=1;jettySize=auto;html=1;entryX=1;entryY=0.5;entryDx=0;entryDy=0;fillColor=#d5e8d4;strokeColor=#82b366;" parent="1" source="sINUKG4I85I86AjKpmML-54" target="sINUKG4I85I86AjKpmML-48" edge="1">
          <mxGeometry relative="1" as="geometry">
            <Array as="points">
              <mxPoint x="670" y="320" />
            </Array>
          </mxGeometry>
        </mxCell>
        <mxCell id="sINUKG4I85I86AjKpmML-54" value="Shopping with Gryfin" style="rounded=0;whiteSpace=wrap;html=1;fillColor=#d5e8d4;strokeColor=#82b366;" parent="1" vertex="1">
          <mxGeometry x="600" y="-30" width="120" height="60" as="geometry" />
        </mxCell>
        <mxCell id="sINUKG4I85I86AjKpmML-61" style="edgeStyle=orthogonalEdgeStyle;rounded=0;orthogonalLoop=1;jettySize=auto;html=1;entryX=0.5;entryY=0;entryDx=0;entryDy=0;fillColor=#e1d5e7;strokeColor=#9673a6;" parent="1" source="sINUKG4I85I86AjKpmML-59" target="sINUKG4I85I86AjKpmML-60" edge="1">
          <mxGeometry relative="1" as="geometry" />
        </mxCell>
        <mxCell id="sINUKG4I85I86AjKpmML-59" value="Chińczyk approaches player" style="rounded=0;whiteSpace=wrap;html=1;fillColor=#e1d5e7;strokeColor=#9673a6;" parent="1" vertex="1">
          <mxGeometry x="400" y="-30" width="120" height="60" as="geometry" />
        </mxCell>
        <mxCell id="sINUKG4I85I86AjKpmML-62" style="edgeStyle=orthogonalEdgeStyle;rounded=0;orthogonalLoop=1;jettySize=auto;html=1;fillColor=#e1d5e7;strokeColor=#9673a6;" parent="1" source="sINUKG4I85I86AjKpmML-60" target="sINUKG4I85I86AjKpmML-48" edge="1">
          <mxGeometry relative="1" as="geometry" />
        </mxCell>
        <mxCell id="sINUKG4I85I86AjKpmML-64" style="edgeStyle=orthogonalEdgeStyle;rounded=0;orthogonalLoop=1;jettySize=auto;html=1;entryX=0.5;entryY=0;entryDx=0;entryDy=0;fillColor=#e1d5e7;strokeColor=#9673a6;" parent="1" source="sINUKG4I85I86AjKpmML-60" target="sINUKG4I85I86AjKpmML-63" edge="1">
          <mxGeometry relative="1" as="geometry" />
        </mxCell>
        <mxCell id="sINUKG4I85I86AjKpmML-60" value="Did player appease Chińczyk?" style="rhombus;whiteSpace=wrap;html=1;fillColor=#e1d5e7;strokeColor=#9673a6;" parent="1" vertex="1">
          <mxGeometry x="420" y="70" width="80" height="80" as="geometry" />
        </mxCell>
        <mxCell id="sINUKG4I85I86AjKpmML-66" style="edgeStyle=orthogonalEdgeStyle;rounded=0;orthogonalLoop=1;jettySize=auto;html=1;entryX=0.75;entryY=0;entryDx=0;entryDy=0;fillColor=#e1d5e7;strokeColor=#9673a6;" parent="1" source="sINUKG4I85I86AjKpmML-63" target="sINUKG4I85I86AjKpmML-48" edge="1">
          <mxGeometry relative="1" as="geometry">
            <mxPoint x="490" y="250.00000000000023" as="targetPoint" />
          </mxGeometry>
        </mxCell>
        <mxCell id="sINUKG4I85I86AjKpmML-63" value="Chińczyk gives player &quot;The End Protector&quot;." style="rounded=0;whiteSpace=wrap;html=1;fillColor=#e1d5e7;strokeColor=#9673a6;" parent="1" vertex="1">
          <mxGeometry x="510" y="160" width="90" height="60" as="geometry" />
        </mxCell>
        <mxCell id="sINUKG4I85I86AjKpmML-69" value="Day 1" style="text;align=center;fontStyle=1;verticalAlign=middle;spacingLeft=3;spacingRight=3;strokeColor=none;rotatable=0;points=[[0,0.5],[1,0.5]];portConstraint=eastwest;fillColor=none;fontColor=#0D3DFF;fontSize=23;" parent="1" vertex="1">
          <mxGeometry x="660" y="-506" width="80" height="26" as="geometry" />
        </mxCell>
        <mxCell id="sINUKG4I85I86AjKpmML-70" value="Player can earn points with Gibek here" style="rounded=0;whiteSpace=wrap;html=1;fillColor=#dae8fc;strokeColor=#6c8ebf;" parent="1" vertex="1">
          <mxGeometry x="40" y="-45" width="120" height="90" as="geometry" />
        </mxCell>
        <mxCell id="sINUKG4I85I86AjKpmML-71" value="Player can earn points with Gryfin here" style="rounded=0;whiteSpace=wrap;html=1;fillColor=#dae8fc;strokeColor=#6c8ebf;" parent="1" vertex="1">
          <mxGeometry x="760" y="-45" width="120" height="90" as="geometry" />
        </mxCell>
        <mxCell id="sINUKG4I85I86AjKpmML-80" style="edgeStyle=orthogonalEdgeStyle;rounded=0;orthogonalLoop=1;jettySize=auto;html=1;entryX=0.5;entryY=0;entryDx=0;entryDy=0;fontSize=12;fontColor=#000000;" parent="1" source="sINUKG4I85I86AjKpmML-74" target="sINUKG4I85I86AjKpmML-78" edge="1">
          <mxGeometry relative="1" as="geometry" />
        </mxCell>
        <mxCell id="sINUKG4I85I86AjKpmML-74" value="Player returns next day" style="rounded=0;whiteSpace=wrap;html=1;" parent="1" vertex="1">
          <mxGeometry x="400" y="659" width="120" height="60" as="geometry" />
        </mxCell>
        <mxCell id="sINUKG4I85I86AjKpmML-86" style="edgeStyle=orthogonalEdgeStyle;rounded=0;orthogonalLoop=1;jettySize=auto;html=1;entryX=0.5;entryY=0;entryDx=0;entryDy=0;fontSize=12;fontColor=#000000;" parent="1" source="sINUKG4I85I86AjKpmML-78" target="sINUKG4I85I86AjKpmML-83" edge="1">
          <mxGeometry relative="1" as="geometry" />
        </mxCell>
        <mxCell id="sINUKG4I85I86AjKpmML-78" value="&quot;The End&quot; approaches" style="rounded=0;whiteSpace=wrap;html=1;" parent="1" vertex="1">
          <mxGeometry x="400" y="759" width="120" height="60" as="geometry" />
        </mxCell>
        <mxCell id="sINUKG4I85I86AjKpmML-81" value="If player has positive relation with any of the characters from previous day, they show up to help player survive" style="rounded=0;whiteSpace=wrap;html=1;fillColor=#dae8fc;strokeColor=#6c8ebf;" parent="1" vertex="1">
          <mxGeometry x="250" y="744" width="120" height="90" as="geometry" />
        </mxCell>
        <mxCell id="sINUKG4I85I86AjKpmML-89" value="No" style="edgeStyle=orthogonalEdgeStyle;rounded=0;orthogonalLoop=1;jettySize=auto;html=1;entryX=0.5;entryY=0;entryDx=0;entryDy=0;fontSize=12;fontColor=#000000;" parent="1" source="sINUKG4I85I86AjKpmML-82" target="sINUKG4I85I86AjKpmML-85" edge="1">
          <mxGeometry relative="1" as="geometry" />
        </mxCell>
        <mxCell id="sINUKG4I85I86AjKpmML-112" style="edgeStyle=orthogonalEdgeStyle;rounded=0;orthogonalLoop=1;jettySize=auto;html=1;entryX=0;entryY=0.75;entryDx=0;entryDy=0;fontSize=12;fontColor=#000000;" parent="1" source="sINUKG4I85I86AjKpmML-82" target="sINUKG4I85I86AjKpmML-110" edge="1">
          <mxGeometry relative="1" as="geometry" />
        </mxCell>
        <mxCell id="sINUKG4I85I86AjKpmML-82" value="Is only one character present?" style="rhombus;whiteSpace=wrap;html=1;" parent="1" vertex="1">
          <mxGeometry x="420" y="1099" width="80" height="80" as="geometry" />
        </mxCell>
        <mxCell id="sINUKG4I85I86AjKpmML-87" value="No" style="edgeStyle=orthogonalEdgeStyle;rounded=0;orthogonalLoop=1;jettySize=auto;html=1;fontSize=12;fontColor=#000000;" parent="1" source="sINUKG4I85I86AjKpmML-83" target="sINUKG4I85I86AjKpmML-84" edge="1">
          <mxGeometry relative="1" as="geometry" />
        </mxCell>
        <mxCell id="sINUKG4I85I86AjKpmML-101" style="edgeStyle=orthogonalEdgeStyle;rounded=0;orthogonalLoop=1;jettySize=auto;html=1;entryX=0;entryY=0.25;entryDx=0;entryDy=0;fontSize=12;fontColor=#000000;" parent="1" source="sINUKG4I85I86AjKpmML-83" target="sINUKG4I85I86AjKpmML-110" edge="1">
          <mxGeometry relative="1" as="geometry">
            <mxPoint x="640" y="920" as="targetPoint" />
            <Array as="points">
              <mxPoint x="550" y="899" />
              <mxPoint x="550" y="1109" />
            </Array>
          </mxGeometry>
        </mxCell>
        <mxCell id="sINUKG4I85I86AjKpmML-83" value="Does player have &quot;The End protector&quot;?" style="rhombus;whiteSpace=wrap;html=1;" parent="1" vertex="1">
          <mxGeometry x="420" y="859" width="80" height="80" as="geometry" />
        </mxCell>
        <mxCell id="sINUKG4I85I86AjKpmML-88" value="No" style="edgeStyle=orthogonalEdgeStyle;rounded=0;orthogonalLoop=1;jettySize=auto;html=1;fontSize=12;fontColor=#000000;" parent="1" source="sINUKG4I85I86AjKpmML-84" target="sINUKG4I85I86AjKpmML-82" edge="1">
          <mxGeometry relative="1" as="geometry" />
        </mxCell>
        <mxCell id="sINUKG4I85I86AjKpmML-100" style="edgeStyle=orthogonalEdgeStyle;rounded=0;orthogonalLoop=1;jettySize=auto;html=1;entryX=0;entryY=0.5;entryDx=0;entryDy=0;fontSize=12;fontColor=#000000;" parent="1" source="sINUKG4I85I86AjKpmML-84" target="sINUKG4I85I86AjKpmML-110" edge="1">
          <mxGeometry relative="1" as="geometry">
            <mxPoint x="600" y="960" as="targetPoint" />
          </mxGeometry>
        </mxCell>
        <mxCell id="sINUKG4I85I86AjKpmML-84" value="Does player have &quot;The 4th wall&quot;?" style="rhombus;whiteSpace=wrap;html=1;" parent="1" vertex="1">
          <mxGeometry x="420" y="979" width="80" height="80" as="geometry" />
        </mxCell>
        <mxCell id="sINUKG4I85I86AjKpmML-116" value="Yes" style="edgeStyle=orthogonalEdgeStyle;rounded=0;orthogonalLoop=1;jettySize=auto;html=1;entryX=0.5;entryY=0;entryDx=0;entryDy=0;fontSize=12;fontColor=#000000;" parent="1" source="sINUKG4I85I86AjKpmML-85" target="sINUKG4I85I86AjKpmML-120" edge="1">
          <mxGeometry relative="1" as="geometry" />
        </mxCell>
        <mxCell id="sINUKG4I85I86AjKpmML-117" value="&amp;nbsp;No&amp;nbsp;" style="edgeStyle=orthogonalEdgeStyle;rounded=0;orthogonalLoop=1;jettySize=auto;html=1;fontSize=12;fontColor=#000000;entryX=0;entryY=0.5;entryDx=0;entryDy=0;entryPerimeter=0;" parent="1" source="sINUKG4I85I86AjKpmML-85" target="sINUKG4I85I86AjKpmML-118" edge="1">
          <mxGeometry relative="1" as="geometry">
            <mxPoint x="570" y="1259" as="targetPoint" />
          </mxGeometry>
        </mxCell>
        <mxCell id="sINUKG4I85I86AjKpmML-85" value="Are two characters present?" style="rhombus;whiteSpace=wrap;html=1;" parent="1" vertex="1">
          <mxGeometry x="420" y="1219" width="80" height="80" as="geometry" />
        </mxCell>
        <mxCell id="sINUKG4I85I86AjKpmML-92" value="&amp;nbsp;No&amp;nbsp;" style="edgeStyle=orthogonalEdgeStyle;rounded=0;orthogonalLoop=1;jettySize=auto;html=1;fontSize=12;fontColor=#000000;" parent="1" source="sINUKG4I85I86AjKpmML-91" edge="1">
          <mxGeometry relative="1" as="geometry">
            <mxPoint x="780" y="420" as="targetPoint" />
          </mxGeometry>
        </mxCell>
        <mxCell id="sINUKG4I85I86AjKpmML-91" value="Does player return next day?" style="rhombus;whiteSpace=wrap;html=1;" parent="1" vertex="1">
          <mxGeometry x="420" y="380" width="80" height="80" as="geometry" />
        </mxCell>
        <mxCell id="sINUKG4I85I86AjKpmML-97" style="edgeStyle=orthogonalEdgeStyle;rounded=0;orthogonalLoop=1;jettySize=auto;html=1;entryX=0;entryY=0.5;entryDx=0;entryDy=0;fontSize=12;fontColor=#000000;" parent="1" source="sINUKG4I85I86AjKpmML-94" target="sINUKG4I85I86AjKpmML-96" edge="1">
          <mxGeometry relative="1" as="geometry" />
        </mxCell>
        <mxCell id="sINUKG4I85I86AjKpmML-94" value="Player leaves sad and eventually gets kidnapped by Shadow Realm" style="rounded=0;whiteSpace=wrap;html=1;" parent="1" vertex="1">
          <mxGeometry x="780" y="390" width="120" height="60" as="geometry" />
        </mxCell>
        <mxCell id="sINUKG4I85I86AjKpmML-95" value="Start" style="ellipse;whiteSpace=wrap;html=1;fontSize=12;fontColor=#000000;strokeColor=#030F3D;strokeWidth=1;fillColor=none;" parent="1" vertex="1">
          <mxGeometry x="420" y="-560" width="80" height="80" as="geometry" />
        </mxCell>
        <mxCell id="sINUKG4I85I86AjKpmML-96" value="En" style="ellipse;html=1;shape=endState;fillColor=#000000;strokeColor=#ff0000;fontSize=12;fontColor=#000000;" parent="1" vertex="1">
          <mxGeometry x="960" y="405" width="30" height="30" as="geometry" />
        </mxCell>
        <mxCell id="sINUKG4I85I86AjKpmML-113" style="edgeStyle=orthogonalEdgeStyle;rounded=0;orthogonalLoop=1;jettySize=auto;html=1;entryX=0;entryY=0.5;entryDx=0;entryDy=0;fontSize=12;fontColor=#000000;" parent="1" source="sINUKG4I85I86AjKpmML-110" target="sINUKG4I85I86AjKpmML-111" edge="1">
          <mxGeometry relative="1" as="geometry" />
        </mxCell>
        <mxCell id="sINUKG4I85I86AjKpmML-110" value="Other characters die, but player escapes &quot;The End&quot;" style="rounded=0;whiteSpace=wrap;html=1;" parent="1" vertex="1">
          <mxGeometry x="570" y="1094" width="120" height="60" as="geometry" />
        </mxCell>
        <mxCell id="sINUKG4I85I86AjKpmML-111" value="En" style="ellipse;html=1;shape=endState;fillColor=#000000;strokeColor=#ff0000;fontSize=12;fontColor=#000000;" parent="1" vertex="1">
          <mxGeometry x="750" y="1124" width="30" height="30" as="geometry" />
        </mxCell>
        <mxCell id="sINUKG4I85I86AjKpmML-127" style="edgeStyle=orthogonalEdgeStyle;rounded=0;orthogonalLoop=1;jettySize=auto;html=1;entryX=0.5;entryY=0;entryDx=0;entryDy=0;fontSize=12;fontColor=#000000;" parent="1" source="sINUKG4I85I86AjKpmML-114" target="sINUKG4I85I86AjKpmML-126" edge="1">
          <mxGeometry relative="1" as="geometry" />
        </mxCell>
        <mxCell id="sINUKG4I85I86AjKpmML-114" value="Characters destroy &quot;The End&quot; and SenatRPG lives on." style="rounded=0;whiteSpace=wrap;html=1;" parent="1" vertex="1">
          <mxGeometry x="400" y="1470" width="120" height="60" as="geometry" />
        </mxCell>
        <mxCell id="sINUKG4I85I86AjKpmML-115" value="En" style="ellipse;html=1;shape=endState;fillColor=#000000;strokeColor=#ff0000;fontSize=12;fontColor=#000000;" parent="1" vertex="1">
          <mxGeometry x="750" y="1244" width="30" height="30" as="geometry" />
        </mxCell>
        <mxCell id="sINUKG4I85I86AjKpmML-119" style="edgeStyle=orthogonalEdgeStyle;rounded=0;orthogonalLoop=1;jettySize=auto;html=1;entryX=0;entryY=0.5;entryDx=0;entryDy=0;fontSize=12;fontColor=#000000;" parent="1" source="sINUKG4I85I86AjKpmML-118" target="sINUKG4I85I86AjKpmML-115" edge="1">
          <mxGeometry relative="1" as="geometry" />
        </mxCell>
        <mxCell id="sINUKG4I85I86AjKpmML-118" value="Player dies devoured by &quot;The End&quot; and ends up in Shadow Realm." style="rounded=0;whiteSpace=wrap;html=1;" parent="1" vertex="1">
          <mxGeometry x="580" y="1229" width="120" height="60" as="geometry" />
        </mxCell>
        <mxCell id="sINUKG4I85I86AjKpmML-121" value="&amp;nbsp;No&amp;nbsp;" style="edgeStyle=orthogonalEdgeStyle;rounded=0;orthogonalLoop=1;jettySize=auto;html=1;fontSize=12;fontColor=#000000;" parent="1" source="sINUKG4I85I86AjKpmML-120" target="sINUKG4I85I86AjKpmML-114" edge="1">
          <mxGeometry relative="1" as="geometry" />
        </mxCell>
        <mxCell id="sINUKG4I85I86AjKpmML-122" style="edgeStyle=orthogonalEdgeStyle;rounded=0;orthogonalLoop=1;jettySize=auto;html=1;fontSize=12;fontColor=#000000;" parent="1" source="sINUKG4I85I86AjKpmML-120" edge="1">
          <mxGeometry relative="1" as="geometry">
            <mxPoint x="580" y="1379.9999999999995" as="targetPoint" />
          </mxGeometry>
        </mxCell>
        <mxCell id="bSBkXTAfgt5YTIxZcjOg-2" value="&amp;nbsp;Yes&amp;nbsp;" style="edgeLabel;html=1;align=center;verticalAlign=middle;resizable=0;points=[];" vertex="1" connectable="0" parent="sINUKG4I85I86AjKpmML-122">
          <mxGeometry x="0.2972" y="1" relative="1" as="geometry">
            <mxPoint as="offset" />
          </mxGeometry>
        </mxCell>
        <mxCell id="sINUKG4I85I86AjKpmML-120" value="Did Ama receve 4th wall?" style="rhombus;whiteSpace=wrap;html=1;fontSize=12;fontColor=#000000;strokeColor=#030F3D;strokeWidth=1;fillColor=none;" parent="1" vertex="1">
          <mxGeometry x="420" y="1340" width="80" height="80" as="geometry" />
        </mxCell>
        <mxCell id="sINUKG4I85I86AjKpmML-125" style="edgeStyle=orthogonalEdgeStyle;rounded=0;orthogonalLoop=1;jettySize=auto;html=1;entryX=0;entryY=0.5;entryDx=0;entryDy=0;fontSize=12;fontColor=#000000;" parent="1" source="sINUKG4I85I86AjKpmML-123" target="sINUKG4I85I86AjKpmML-124" edge="1">
          <mxGeometry relative="1" as="geometry" />
        </mxCell>
        <mxCell id="sINUKG4I85I86AjKpmML-123" value="Ama realizes that she&#39;s in the game and concurs the world." style="rounded=0;whiteSpace=wrap;html=1;" parent="1" vertex="1">
          <mxGeometry x="580" y="1350" width="120" height="60" as="geometry" />
        </mxCell>
        <mxCell id="sINUKG4I85I86AjKpmML-124" value="En" style="ellipse;html=1;shape=endState;fillColor=#000000;strokeColor=#ff0000;fontSize=12;fontColor=#000000;" parent="1" vertex="1">
          <mxGeometry x="750" y="1365" width="30" height="30" as="geometry" />
        </mxCell>
        <mxCell id="sINUKG4I85I86AjKpmML-126" value="En" style="ellipse;html=1;shape=endState;fillColor=#000000;strokeColor=#ff0000;fontSize=12;fontColor=#000000;" parent="1" vertex="1">
          <mxGeometry x="445" y="1580" width="30" height="30" as="geometry" />
        </mxCell>
        <mxCell id="sINUKG4I85I86AjKpmML-129" value="Day 2" style="text;align=center;fontStyle=1;verticalAlign=middle;spacingLeft=3;spacingRight=3;strokeColor=none;rotatable=0;points=[[0,0.5],[1,0.5]];portConstraint=eastwest;fillColor=none;fontColor=#FF3B7C;fontSize=23;" parent="1" vertex="1">
          <mxGeometry x="1000" y="610" width="80" height="26" as="geometry" />
        </mxCell>
        <mxCell id="sINUKG4I85I86AjKpmML-131" style="edgeStyle=orthogonalEdgeStyle;rounded=0;orthogonalLoop=1;jettySize=auto;html=1;fontSize=12;fontColor=#FF3B7C;" parent="1" source="sINUKG4I85I86AjKpmML-130" target="sINUKG4I85I86AjKpmML-7" edge="1">
          <mxGeometry relative="1" as="geometry" />
        </mxCell>
        <mxCell id="sINUKG4I85I86AjKpmML-130" value="Introduction" style="rounded=0;whiteSpace=wrap;html=1;" parent="1" vertex="1">
          <mxGeometry x="400" y="-440" width="120" height="60" as="geometry" />
        </mxCell>
        <mxCell id="sINUKG4I85I86AjKpmML-132" value="On the way to SenatRPG player can find &quot;The 4th Wall&quot;" style="rounded=0;whiteSpace=wrap;html=1;fillColor=#dae8fc;strokeColor=#6c8ebf;" parent="1" vertex="1">
          <mxGeometry x="530" y="-455" width="120" height="90" as="geometry" />
        </mxCell>
        <mxCell id="sINUKG4I85I86AjKpmML-136" style="edgeStyle=orthogonalEdgeStyle;rounded=0;orthogonalLoop=1;jettySize=auto;html=1;fontSize=12;fontColor=#FF3B7C;entryX=0.5;entryY=0;entryDx=0;entryDy=0;" parent="1" source="sINUKG4I85I86AjKpmML-135" target="sINUKG4I85I86AjKpmML-74" edge="1">
          <mxGeometry relative="1" as="geometry">
            <mxPoint x="460" y="620" as="targetPoint" />
          </mxGeometry>
        </mxCell>
        <mxCell id="sINUKG4I85I86AjKpmML-135" value="On evening player can send mail to Gryfin or Gibek to earn more points with respective character" style="rounded=0;whiteSpace=wrap;html=1;" parent="1" vertex="1">
          <mxGeometry x="400" y="510" width="120" height="90" as="geometry" />
        </mxCell>
      </root>
    </mxGraphModel>
  </diagram>
</mxfile>
